<svg xmlns="http://www.w3.org/2000/svg" viewBox="0 0 85.778 33.665">
  <defs>
    <style>
      .cls-1 {
        fill: #fff;
      }
    </style>
  </defs>
  <path id="Union_3" data-name="Union 3" class="cls-1" d="M-1946.488,45.824c-1.476-.1-2.952-.263-4.423-.451-1.094-.139-2.173-.37-3.262-.563a.443.443,0,0,0,.022-.08c.547.064,1.094.123,1.647.188a34.875,34.875,0,0,0,5.593.22c.832-.038,1.658-.075,2.489-.134a4.553,4.553,0,0,0,2.093-.585,2.012,2.012,0,0,0,.375-.3,1.022,1.022,0,0,0-.118-1.626,2.542,2.542,0,0,0-2.093-.408c-1.288.252-2.561.563-3.843.848a29.2,29.2,0,0,1-7.932.714c-1.079-.059-2.152-.193-3.226-.29v-.08c.231-.027.462-.065.692-.086a42.075,42.075,0,0,0,9.248-2.1,32.87,32.87,0,0,1,5.216-1.277,10.448,10.448,0,0,1,4.336.085c.263.07.52.172.8.268.268-1.127.531-2.237.8-3.354h.042c.123.773.253,1.541.376,2.313.156.961.332,1.916.467,2.883a2.627,2.627,0,0,1-1.047,2.474,5.512,5.512,0,0,1-2.49,1.051,18.048,18.048,0,0,1-3.738.357C-1945.137,45.9-1945.813,45.868-1946.488,45.824Zm43.838-2.1a1.982,1.982,0,0,1-.427-.27,2.027,2.027,0,0,1-.353-.367,1.284,1.284,0,0,1-.21-.412,2.6,2.6,0,0,1,.239-1.1,3.076,3.076,0,0,1,.652-.923,3.332,3.332,0,0,1,.976-.65,2.974,2.974,0,0,1,1.222-.249,3.664,3.664,0,0,0-.075-.738c-.05-.241-.1-.474-.158-.7s-.108-.446-.157-.662a2.81,2.81,0,0,1-.076-.641,2.081,2.081,0,0,1,.166-.806,3.029,3.029,0,0,1,.435-.738,2.778,2.778,0,0,1,.63-.581,2.27,2.27,0,0,1,.75-.331,1.424,1.424,0,0,1,.443.263,5.99,5.99,0,0,1,.547.487,5.308,5.308,0,0,1,.481.548,1.4,1.4,0,0,1,.255.457,2.857,2.857,0,0,1-.1.592,3.257,3.257,0,0,1-.2.555,2.1,2.1,0,0,1-.256.412.359.359,0,0,1-.255.166c-.11-.01-.175-.085-.2-.225a.459.459,0,0,1,.038-.143c.025-.065.052-.137.083-.217s.058-.16.082-.24a.713.713,0,0,0,.038-.21.613.613,0,0,0-.1-.353.3.3,0,0,0-.263-.142q-.6,0-.915.746a5.9,5.9,0,0,0-.315,2.194.58.58,0,0,0,.015.179h1.05a.318.318,0,0,1,.014.12.269.269,0,0,1-.059.194q-.346.074-.548.127a2.058,2.058,0,0,0-.307.1.232.232,0,0,0-.128.1.363.363,0,0,0-.023.142c0,.079,0,.159.007.238s.008.179.008.3a2.914,2.914,0,0,1-.683,2.018,2.806,2.806,0,0,1-1.9.884A1.226,1.226,0,0,1-1902.65,43.721Zm1.5-2.932a3.942,3.942,0,0,0-.675.555,3.8,3.8,0,0,0-.525.667,1.2,1.2,0,0,0-.21.6.636.636,0,0,0,.3.54,2.453,2.453,0,0,0,.682-.435,3.292,3.292,0,0,0,.563-.645,3.4,3.4,0,0,0,.382-.765,2.373,2.373,0,0,0,.143-.795A1.716,1.716,0,0,0-1901.15,40.789Zm-24.825,2.25a3.862,3.862,0,0,1-.69-.848q.12-.239.278-.615t.374-.907q.217-.533.495-1.246t.638-1.657a1.176,1.176,0,0,1-.661-.585,1.035,1.035,0,0,1,.338-.128c.176-.045.392-.093.652-.142l.2-.481q.315-.81.517-1.364t.345-1.088q.143-.532.27-1.177t.308-1.635a2.485,2.485,0,0,1,1.147.555,4.247,4.247,0,0,1,.893,1.05,4.483,4.483,0,0,0-.33.54q-.194.359-.427.862t-.5,1.125q-.27.622-.585,1.312.93-.128,1.882-.24a14.633,14.633,0,0,1,1.688-.112q.27-.784.563-1.53t.578-1.364q.285-.618.547-1.085a3.816,3.816,0,0,1,.473-.693,1.593,1.593,0,0,1,.4.112,4.952,4.952,0,0,1,.5.232,3.6,3.6,0,0,1,.465.293,1.026,1.026,0,0,1,.285.292,3.832,3.832,0,0,0-.54.661,8.573,8.573,0,0,0-.533.93q-.263.525-.517,1.14t-.48,1.274a.871.871,0,0,1,.3.675,1.172,1.172,0,0,1-.12.526,1,1,0,0,0-.27-.038c-.09,0-.185-.005-.285-.015q-.255.809-.465,1.6t-.352,1.511q-.143.718-.225,1.317a7.585,7.585,0,0,0-.083,1c0,.1,0,.179.007.239a1.019,1.019,0,0,0,.022.149.9.9,0,0,1-.48-.1.752.752,0,0,1-.225-.211,2.465,2.465,0,0,1-.135-.225.386.386,0,0,0-.2-.173.452.452,0,0,1-.194-.211,1.816,1.816,0,0,1-.15-.376,3.069,3.069,0,0,1-.09-.421,2.576,2.576,0,0,1-.03-.346,8.144,8.144,0,0,1,.21-1.625q.209-.992.555-2.12-.991.078-1.988.2a14.13,14.13,0,0,1-1.733.126,27.313,27.313,0,0,0-1.072,2.906,23.4,23.4,0,0,0-.623,2.591A2.113,2.113,0,0,1-1925.975,43.039Zm29.108-.923a2.209,2.209,0,0,1-.578-1.537,4.777,4.777,0,0,1,.173-1.253,6.11,6.11,0,0,1,.48-1.23,7.075,7.075,0,0,1,.72-1.117,5.946,5.946,0,0,1,.885-.915,4.249,4.249,0,0,1,.976-.615,2.418,2.418,0,0,1,1-.225,2.011,2.011,0,0,1,1.29.855,5.144,5.144,0,0,1-.329,1.6,3.488,3.488,0,0,1-.773,1.17,5.6,5.6,0,0,1-1.222.907,13.362,13.362,0,0,1-1.68.78c0,.059,0,.122-.007.187s-.007.132-.007.2a2.887,2.887,0,0,0,.03.4,1.559,1.559,0,0,0,.105.39.735.735,0,0,0,.21.292.518.518,0,0,0,.345.112,1.873,1.873,0,0,0,.8-.18,4.152,4.152,0,0,0,.743-.442,6.065,6.065,0,0,0,.66-.571q.308-.306.547-.562a3.108,3.108,0,0,1,.256.256,7.246,7.246,0,0,1-1.478,1.492,4.2,4.2,0,0,1-1.523.758A2.47,2.47,0,0,1-1896.867,42.116Zm3.067-5.213a3.517,3.517,0,0,0-.817.72,5.708,5.708,0,0,0-.7,1.05,6,6,0,0,0-.495,1.29,6.679,6.679,0,0,0,1.994-1.477,3.071,3.071,0,0,0,.855-1.913A2.213,2.213,0,0,0-1893.8,36.9Zm-22.3,5.161a2.666,2.666,0,0,1-.51-1.68,4.632,4.632,0,0,1,.18-1.245,5.947,5.947,0,0,1,.51-1.253,7.025,7.025,0,0,1,.779-1.148,5.7,5.7,0,0,1,.976-.93,2.637,2.637,0,0,1,1.544-.616,2.662,2.662,0,0,1,.945,1.066,1.007,1.007,0,0,0,.135-.008,1.224,1.224,0,0,1,.135-.007q.8,0,.8,1.41a5.2,5.2,0,0,1-.308,1.792,5.436,5.436,0,0,1-.855,1.538,5.1,5.1,0,0,1-1.305,1.162,5.167,5.167,0,0,1-1.658.668A1.9,1.9,0,0,1-1916.1,42.064Zm3.022-4.891a6.178,6.178,0,0,0-.893.915,6.935,6.935,0,0,0-.48.75,7.062,7.062,0,0,0-.39.818,5.557,5.557,0,0,0-.255.795,3.046,3.046,0,0,0-.09.682,2,2,0,0,0,.121.69c.08.22.169.345.27.375a3.28,3.28,0,0,0,1.238-.562,4.09,4.09,0,0,0,.975-1.028,5.114,5.114,0,0,0,.645-1.4,5.807,5.807,0,0,0,.232-1.665,3.3,3.3,0,0,0-.045-.615,1.13,1.13,0,0,0-.15-.391A3.239,3.239,0,0,0-1913.082,37.174Zm-46.511-3.071c-.413.076-.794.15-1.175.215a13.6,13.6,0,0,1-4.637.091,6.837,6.837,0,0,1-4.722-3.177,10.016,10.016,0,0,1-1.637-5.055,6.355,6.355,0,0,1,4.8-6.5,7.841,7.841,0,0,1,4.487-.167c.526.156,1.03.4,1.53.59.123-.51.22-1.057.4-1.572a7.915,7.915,0,0,1,2.635-3.58,11.473,11.473,0,0,1,5.619-2.6,8.417,8.417,0,0,1,6.231,1.358,59.144,59.144,0,0,0,6.214,3.9,25.407,25.407,0,0,0,5.388,2.066.416.416,0,0,1,.241.129c-.628-.054-1.255-.1-1.884-.156a28.8,28.8,0,0,1-9.317-2.78,26.382,26.382,0,0,0-3.327-1.39,9.1,9.1,0,0,0-6.6.343,7.424,7.424,0,0,0-4.03,4.631,1.184,1.184,0,0,0,.1,1.1,5.6,5.6,0,0,1,.692,2.125l-.08-.1a7.835,7.835,0,0,0-6.37-2.925,5.273,5.273,0,0,0-5.216,5.549,6.565,6.565,0,0,0,1.83,4.159,7.452,7.452,0,0,0,4.53,2.5,8.589,8.589,0,0,0,4.792-.655c.569-.247,1.116-.553,1.723-.859a5.134,5.134,0,0,1-2.485-4.019c.038.059.07.112.107.172a7.26,7.26,0,0,0,4.245,3.155,2.586,2.586,0,0,0,1.326,0c.386-.1.783-.167,1.229-.257a5.368,5.368,0,0,1-2.189-3.414,8.968,8.968,0,0,1,.2-4c.1.7.14,1.444.306,2.157a6.285,6.285,0,0,0,2.764,4.057,5.606,5.606,0,0,0,3,.832,4.47,4.47,0,0,1-.145-3.542c.016.183.027.359.043.542a3.444,3.444,0,0,0,3.1,3.15c1.39.1,2.779.21,4.175.242a6.734,6.734,0,0,0,5.206-2.179c.7-.735,1.309-1.557,1.958-2.345.092-.107.167-.226.264-.365a8.02,8.02,0,0,1-3.365,5.453,3.843,3.843,0,0,0,2.221,1.524,5.519,5.519,0,0,0,3.966-.574,7.109,7.109,0,0,0,3.832-4.438,6.87,6.87,0,0,0-4.047-8.356,26.517,26.517,0,0,0-3.853-1.112,22.849,22.849,0,0,1-5-1.723,6.6,6.6,0,0,1-2.3-1.894c.016-.005.032-.016.038-.016a10.836,10.836,0,0,0,4.535,2.012c1.851.424,3.713.8,5.576,1.186a8.21,8.21,0,0,1,4.981,2.963,7.989,7.989,0,0,1,1.637,3.934,9.267,9.267,0,0,1-6.655,9.976,12.057,12.057,0,0,1-4.91.354c-.07-.011-.156-.118-.188-.2a14.018,14.018,0,0,0-.58-1.433,2.988,2.988,0,0,0-2.034-1.412,26.146,26.146,0,0,0-2.657-.509c-1.282-.167-2.57-.333-3.864-.382a17.624,17.624,0,0,0-6.827,1.278c-.692.257-1.368.558-2.061.826a3.252,3.252,0,0,0-2.056,2.581,13.192,13.192,0,0,0-.085,3.317c.011.177.027.355.043.553a33,33,0,0,1,9.515-2.248,32.715,32.715,0,0,1,5.571-.076c-.7.076-1.4.15-2.088.231a38.6,38.6,0,0,0-12,3.193,10.731,10.731,0,0,0-1.24.687,3.415,3.415,0,0,0-1.417,1.556Zm50.651,8.4a2,2,0,0,1-.495-.234,1.749,1.749,0,0,1-.405-.362,1.141,1.141,0,0,1-.232-.483q0-.42.023-.69a3.84,3.84,0,0,1,.1-.585,11.562,11.562,0,0,1,.4-1.29,13.931,13.931,0,0,1,.607-1.417,9.75,9.75,0,0,1,.772-1.305,3.968,3.968,0,0,1,.907-.952,2.517,2.517,0,0,1,.315.023,2.011,2.011,0,0,1,.368.082,3,3,0,0,1,.36.143.919.919,0,0,1,.292.217,12.1,12.1,0,0,0-.683,1.005,16.932,16.932,0,0,0-1.222,2.46c-.05.111-.11.27-.18.481s-.14.429-.21.66-.128.455-.173.675a2.766,2.766,0,0,0-.068.525.341.341,0,0,0,.038.18.435.435,0,0,0,.068.09,1.745,1.745,0,0,0,.57-.495q.346-.405.96-1.245c.1-.14.217-.3.352-.48s.273-.373.413-.578.272-.418.4-.637a4.354,4.354,0,0,0,.308-.661c.04-.12.093-.262.157-.427a5.082,5.082,0,0,1,.24-.518,5.821,5.821,0,0,1,.329-.547,3.065,3.065,0,0,1,.443-.518,2.18,2.18,0,0,1,.42.045,3.531,3.531,0,0,1,.427.112,2.133,2.133,0,0,1,.352.15.782.782,0,0,1,.225.172q-.27.66-.6,1.305t-.616,1.268a10.762,10.762,0,0,0-.48,1.237,3.968,3.968,0,0,0-.2,1.2,2.5,2.5,0,0,0,.053.547,2.863,2.863,0,0,0,.113.391,2.772,2.772,0,0,0,.112.262.432.432,0,0,1,.052.18c0,.01-.01.025-.03.045a.046.046,0,0,1-.031.015,1.091,1.091,0,0,1-.27-.045,3.243,3.243,0,0,1-.367-.128q-.2-.082-.405-.187a4.021,4.021,0,0,1-.382-.225,1.165,1.165,0,0,1-.383-.6,2.415,2.415,0,0,1-.1-.615,1.708,1.708,0,0,1,.075-.54c-.04,0-.13.08-.27.239s-.292.349-.457.568-.328.434-.488.644-.28.364-.36.464a2.411,2.411,0,0,1-.367.328.72.72,0,0,1-.278.135A1.653,1.653,0,0,1-1908.942,42.5Zm1.883-17.46a1.914,1.914,0,0,1-.4-.252,1.909,1.909,0,0,1-.329-.343,1.212,1.212,0,0,1-.2-.385,2.421,2.421,0,0,1,.224-1.023,2.861,2.861,0,0,1,.609-.86,3.076,3.076,0,0,1,.91-.607,2.789,2.789,0,0,1,1.141-.233,3.375,3.375,0,0,0-.07-.689q-.07-.337-.147-.654t-.148-.618a2.635,2.635,0,0,1-.069-.6,1.94,1.94,0,0,1,.154-.752,2.828,2.828,0,0,1,.406-.689,2.57,2.57,0,0,1,.588-.542,2.13,2.13,0,0,1,.7-.31,1.339,1.339,0,0,1,.413.246,5.592,5.592,0,0,1,.51.455,4.907,4.907,0,0,1,.448.511,1.313,1.313,0,0,1,.239.427,2.729,2.729,0,0,1-.091.554,2.921,2.921,0,0,1-.189.517,1.944,1.944,0,0,1-.239.385.336.336,0,0,1-.238.154c-.1-.009-.164-.079-.182-.21a.425.425,0,0,1,.034-.133c.023-.06.05-.128.078-.2s.054-.149.077-.224a.7.7,0,0,0,.034-.2.568.568,0,0,0-.091-.329.282.282,0,0,0-.245-.132q-.56,0-.854.7a5.5,5.5,0,0,0-.293,2.048.553.553,0,0,0,.014.167h.98a.3.3,0,0,1,.014.112.245.245,0,0,1-.056.181q-.321.07-.511.119a2.065,2.065,0,0,0-.286.091.212.212,0,0,0-.12.09.35.35,0,0,0-.021.132c0,.075,0,.149.007.223s.007.167.007.278a2.721,2.721,0,0,1-.637,1.884,2.619,2.619,0,0,1-1.771.824A1.162,1.162,0,0,1-1907.06,25.038Zm1.4-2.737a3.619,3.619,0,0,0-.63.517,3.476,3.476,0,0,0-.49.624,1.121,1.121,0,0,0-.2.56.593.593,0,0,0,.28.5,2.3,2.3,0,0,0,.637-.406,3.077,3.077,0,0,0,.526-.6,3.208,3.208,0,0,0,.356-.715,2.212,2.212,0,0,0,.133-.742A1.6,1.6,0,0,0-1905.659,22.3Zm-15.449,1.51a4.185,4.185,0,0,1-.861-2.911,7.586,7.586,0,0,1,.532-2.8,8.651,8.651,0,0,1,1.415-2.406,7.249,7.249,0,0,1,2.022-1.69,4.8,4.8,0,0,1,2.373-.638,2.459,2.459,0,0,1,1.5.406,1.354,1.354,0,0,1,.539,1.148,1.858,1.858,0,0,1-.231.91,3.777,3.777,0,0,1-.762.91,1.289,1.289,0,0,1-.561-.343,1.055,1.055,0,0,1-.293-.567,2.81,2.81,0,0,0,.672-.643,1.228,1.228,0,0,0,.2-.7q0-.644-.77-.644a2.506,2.506,0,0,0-1.351.47,6.57,6.57,0,0,0-1.449,1.353,8.569,8.569,0,0,0-1.513,2.571,8.774,8.774,0,0,0-.475,2.978,4.59,4.59,0,0,0,.126,1.121,3.612,3.612,0,0,0,.336.884,1.953,1.953,0,0,0,.5.6,1.15,1.15,0,0,0,.623.252,2.206,2.206,0,0,0,.9-.455,4.838,4.838,0,0,0,.819-.841,5.54,5.54,0,0,0,.63-1.036,3.4,3.4,0,0,0,.315-1.057c-.261.055-.511.107-.749.158a3.287,3.287,0,0,1-.68.076,1.3,1.3,0,0,1-.734-.21,1.035,1.035,0,0,1-.427-.574,4.264,4.264,0,0,1,.735-.3q.483-.155,1.029-.289t1.071-.219a5.6,5.6,0,0,1,.861-.085.706.706,0,0,1,.574.254,1.078,1.078,0,0,1,.21.706,1.883,1.883,0,0,1-.014.232,1.089,1.089,0,0,1-.041.205,2.426,2.426,0,0,0-.644-.081,3.809,3.809,0,0,1-.448,1.284,6.8,6.8,0,0,1-.882,1.264,6.752,6.752,0,0,1-1.134,1.034,3.615,3.615,0,0,1-1.218.6A3.563,3.563,0,0,1-1921.109,23.811Zm20.727.386a2.868,2.868,0,0,1-.637-.35,2.055,2.055,0,0,1-.469-.47.887.887,0,0,1-.182-.511,5.054,5.054,0,0,1,.091-.848q.09-.512.259-1.115t.391-1.261q.224-.659.49-1.3h-.8a.915.915,0,0,1-.126-.357,2.42,2.42,0,0,1-.056-.469,4.657,4.657,0,0,0,.7.056h.616q.211-.416.455-.824c.163-.273.321-.521.475-.748a6.439,6.439,0,0,1,.435-.574,1.63,1.63,0,0,1,.315-.3,1.7,1.7,0,0,1,.356.049,4.367,4.367,0,0,1,.441.126,4.287,4.287,0,0,1,.406.161.735.735,0,0,1,.253.168q-.421.528-.722.98t-.651,1.036h.567a4.126,4.126,0,0,0,.581-.042.525.525,0,0,1,.112.176.579.579,0,0,1,.042.217,4.619,4.619,0,0,1-1.666.265q-.351.674-.624,1.341t-.462,1.284a11.278,11.278,0,0,0-.294,1.165,5.323,5.323,0,0,0-.1.983q0,.617.462.688a3.269,3.269,0,0,0,.8-.21,2.666,2.666,0,0,0,.671-.392.562.562,0,0,1,.1.21,1.464,1.464,0,0,1-.287.292q-.2.166-.441.327a4.087,4.087,0,0,1-.462.271,1.194,1.194,0,0,1-.336.125A1.866,1.866,0,0,1-1900.382,24.2Zm9.268-.707a2.487,2.487,0,0,1-.476-1.568,4.327,4.327,0,0,1,.167-1.162,5.623,5.623,0,0,1,.476-1.169,6.6,6.6,0,0,1,.728-1.071,5.292,5.292,0,0,1,.91-.868,2.466,2.466,0,0,1,1.443-.573,2.487,2.487,0,0,1,.882.994,1.056,1.056,0,0,0,.126-.007,1.049,1.049,0,0,1,.126-.007q.741,0,.742,1.317a4.861,4.861,0,0,1-.287,1.673,5.083,5.083,0,0,1-.8,1.435,4.769,4.769,0,0,1-1.219,1.085,4.847,4.847,0,0,1-1.547.623A1.777,1.777,0,0,1-1891.113,23.491Zm2.821-4.564a5.705,5.705,0,0,0-.833.854,6.226,6.226,0,0,0-.448.7,6.622,6.622,0,0,0-.365.762,5.227,5.227,0,0,0-.238.743,2.821,2.821,0,0,0-.084.637,1.871,1.871,0,0,0,.112.643q.112.308.252.35a3.05,3.05,0,0,0,1.155-.525,3.83,3.83,0,0,0,.911-.959,4.732,4.732,0,0,0,.6-1.3,5.4,5.4,0,0,0,.217-1.553,3.087,3.087,0,0,0-.041-.574,1.043,1.043,0,0,0-.14-.364A3,3,0,0,0-1888.293,18.927Zm-8.329,5.159a2.509,2.509,0,0,1-.35-.189,2.374,2.374,0,0,1-.315-.238.662.662,0,0,1-.183-.239q.07-.406.246-1.071t.413-1.414q.238-.749.5-1.5t.517-1.358a6.434,6.434,0,0,1,.322-.679,1.945,1.945,0,0,1,.308-.413,2.247,2.247,0,0,1,.406.1,3.024,3.024,0,0,1,.406.167,2.984,2.984,0,0,1,.35.2,1.241,1.241,0,0,1,.238.2,5.132,5.132,0,0,0-.665,1.022,11.075,11.075,0,0,0-.581,1.47q.756-.672,1.337-1.288a10.386,10.386,0,0,0,1.084-1.372.47.47,0,0,1,.294-.07,1.142,1.142,0,0,1,.378.063.461.461,0,0,1,.252.175,3.764,3.764,0,0,0-.252,1.33,1.857,1.857,0,0,0,.182.924,1.056,1.056,0,0,1-.189.322,3.869,3.869,0,0,1-.384.447,2.216,2.216,0,0,1-.672-.539,2.276,2.276,0,0,1-.434-.749,9.592,9.592,0,0,0-1.12.9,4.829,4.829,0,0,0-.791.979,6,6,0,0,0-.56,1.239,16.917,16.917,0,0,0-.441,1.666A1.051,1.051,0,0,1-1896.622,24.086Zm-16.737-.562a2.081,2.081,0,0,1-.322-1.2,4.613,4.613,0,0,1,.337-1.659,7.4,7.4,0,0,1,.86-1.617,6.142,6.142,0,0,1,1.141-1.244,1.915,1.915,0,0,1,1.19-.5,1.134,1.134,0,0,1,.315.168,2.408,2.408,0,0,1,.337.293,2.222,2.222,0,0,1,.273.342.746.746,0,0,1,.126.3,2.518,2.518,0,0,0-1.155.545,5.644,5.644,0,0,0-1.078,1.11,6.5,6.5,0,0,0-.791,1.39,3.622,3.622,0,0,0-.308,1.383.312.312,0,0,0,.2.335,1.941,1.941,0,0,0,.939-.693,13.363,13.363,0,0,0,1.288-1.883q.139-.252.315-.56c.116-.205.236-.42.356-.644s.24-.45.357-.679.226-.451.329-.665a1.347,1.347,0,0,1,.328.049,1.784,1.784,0,0,1,.343.126,1.48,1.48,0,0,1,.259.161q.105.084.105.154-.281.589-.518,1.183t-.406,1.141a9.9,9.9,0,0,0-.259,1.021,4.523,4.523,0,0,0-.091.826,2.12,2.12,0,0,0,.085.651.624.624,0,0,0,.28.371,1.457,1.457,0,0,1-.435.183,1.88,1.88,0,0,1-.475.069q-.758,0-.756-1.036a6.549,6.549,0,0,1,.532-2.183,8.508,8.508,0,0,1-.644,1.205,8.532,8.532,0,0,1-.742,1,4.4,4.4,0,0,1-.763.7,1.793,1.793,0,0,1-.707.328A.977.977,0,0,1-1913.359,23.524Z" transform="translate(1971.768 -12.232)"/>
</svg>
